# xmcd
# 
# Track frame offsets:
#     150
#     20993
#     40929
#     62907
#     91549
#     105576
#     121506
#     146092
#     170754
#     191832
# 
# Disc length: 2840
# 
# Revision: 4
# Processed by: cddbd v1.5.2PL0 Copyright (c) Steve Scherf et al.
# Submitted via: fre:ac v1.0.31
# 
DISCID=880b160a
DTITLE=Craig Chaquico - Fire Red Moon
DYEAR=2012
DGENRE=Jazz
TTITLE0=Lie To Me
TTITLE1=Devil's Daughter
TTITLE2=Born Under a Bad Sign
TTITLE3=Bad Woman
TTITLE4=Rollin' and Tumblin'
TTITLE5=Fire Red Moon
TTITLE6=Little Red Shoes
TTITLE7=Blue On Blue
TTITLE8=Fogtown Stroll
TTITLE9=Crossroads
EXTD=
EXTT0=
EXTT1=
EXTT2=
EXTT3=
EXTT4=
EXTT5=
EXTT6=
EXTT7=
EXTT8=
EXTT9=
PLAYORDER=
